<svg xmlns="http://www.w3.org/2000/svg" width="16" height="16" viewBox="0 0 16 16"><defs><style>.a,.b{fill:none;}.b{stroke:#00abc5;stroke-linecap:round;stroke-linejoin:round;}</style></defs><rect class="a" width="16" height="16"/><path class="b" d="M5495.912,2184.938a5.206,5.206,0,0,0,2.173.9v.829h1.741v-.829a5.186,5.186,0,0,0,2.172-.9l.585.587,1.23-1.234-.584-.586a5.214,5.214,0,0,0,.9-2.167h.827v-1.745h-.827a5.241,5.241,0,0,0-.9-2.169l.584-.584-1.23-1.233-.585.586a5.23,5.23,0,0,0-2.172-.9v-.827h-1.741v.827a5.25,5.25,0,0,0-2.173.9l-.585-.586-1.232,1.233.586.584a5.238,5.238,0,0,0-.9,2.169h-.826v1.745h.826a5.211,5.211,0,0,0,.9,2.167l-.586.586,1.232,1.234Zm1.425-5.892a2.288,2.288,0,1,1,0,3.236A2.29,2.29,0,0,1,5497.336,2179.047Z" transform="translate(-5490.623 -2172.333)"/></svg>