<svg xmlns="http://www.w3.org/2000/svg" xmlns:xlink="http://www.w3.org/1999/xlink" width="85.377" height="85.375" viewBox="0 0 85.377 85.375"><defs><style>.a{fill:#57bd84;}.b{opacity:0.14;}.c{fill:#d3d4d7;}.d{fill:#fff;}.e{fill:#1a2d4e;}.f,.g{opacity:0.54;}.f{fill:url(#a);}.g{fill:url(#b);}.h{fill:#279d82;}</style><linearGradient id="a" x1="-66.485" y1="1222.761" x2="-66.397" y2="1222.761" gradientUnits="objectBoundingBox"><stop offset="0" stop-opacity="0.161"/><stop offset="1" stop-color="#1e212a" stop-opacity="0"/></linearGradient><linearGradient id="b" x1="-67.802" y1="305.41" x2="-67.714" y2="305.41" xlink:href="#a"/></defs><circle class="a" cx="42.688" cy="42.688" r="42.688"/><path class="b" d="M1201.208,298.452a42.687,42.687,0,0,0,41.1-44.216q-.079-2.142-.371-4.269h0l-16.778-16.87-51.029,30.45,10.293,10.346-4.257,3.4Z" transform="translate(-1156.963 -213.107)"/><circle class="c" cx="0.711" cy="0.711" r="0.711" transform="translate(41.975 49.092)"/><g transform="translate(17.074 19.881)"><path class="d" d="M1187.562,279.984h31.925v1.394h-31.925Z" transform="translate(-1177.912 -246.517)"/><path class="e" d="M1174.19,232.944h50.845a.189.189,0,0,1,.19.19h0v24.91H1174v-24.91A.19.19,0,0,1,1174.19,232.944Z" transform="translate(-1173.999 -232.944)"/><path class="d" d="M1174,268.224h51.225v5.386a.19.19,0,0,1-.19.189h-50.846a.189.189,0,0,1-.189-.189v-5.386Z" transform="translate(-1173.999 -243.124)"/><path class="e" d="M1197.476,276.064h17.818v2.789h-17.818Z" transform="translate(-1180.773 -245.386)"/><path class="d" d="M1222.793,289.888l-2.59,1.55-.016,1.9,2.594,1.613h8.205V289.89Z" transform="translate(-1187.326 -249.375)"/><g transform="translate(5.556 40.514)"><g transform="translate(16.468 1.702)"><path class="d" d="M1204.956,292.281v1.6h10.835l.016-1.6Z" transform="translate(-1204.956 -292.281)"/><path class="f" d="M1204.956,292.281v1.6h10.835l.016-1.6Z" transform="translate(-1204.956 -292.281)"/></g><path class="e" d="M1184.7,290.444c-1.6,0-2.894.957-2.894,2.134s1.3,2.134,2.894,2.134h13.574v-4.269Z" transform="translate(-1181.809 -290.049)"/><path class="g" d="M1222.8,289.889l-2.591,1.55-.014,1.9,2.591,1.612h8.2v-5.058Z" transform="translate(-1192.885 -289.889)"/></g><g transform="translate(16.721 5.884)"><path class="h" d="M1199.692,248.831a3.851,3.851,0,0,0,1.613.664v.614h1.291v-.614a3.834,3.834,0,0,0,1.613-.664l.434.434.912-.914-.432-.434a3.867,3.867,0,0,0,.664-1.607h.615v-1.293h-.615a3.891,3.891,0,0,0-.664-1.612l.432-.433-.912-.913-.434.433a3.853,3.853,0,0,0-1.613-.664v-.614H1201.3v.614a3.874,3.874,0,0,0-1.613.664l-.433-.433-.914.913.433.433a3.89,3.89,0,0,0-.664,1.612h-.613v1.293h.613a3.875,3.875,0,0,0,.664,1.607l-.433.434.914.914Zm1.054-4.363a1.7,1.7,0,1,1,0,2.4,1.7,1.7,0,0,1,0-2.4h0Z" transform="translate(-1197.501 -241.215)"/><path class="a" d="M1199.7,249.362a3.852,3.852,0,0,0,1.613.664v.614h1.291v-.614a3.834,3.834,0,0,0,1.613-.664l.434.434.453-.452-1.946-1.946a1.7,1.7,0,0,1-2.4-2.4l-1.945-1.947-.452.452.433.433a3.891,3.891,0,0,0-.664,1.613h-.613v1.293h.613a3.881,3.881,0,0,0,.664,1.607l-.433.433.913.914.433-.433Z" transform="translate(-1197.505 -241.746)"/><g transform="translate(8.895 5.335)"><path class="h" d="M1212.192,256.331a3.852,3.852,0,0,0,1.613.664v.614h1.291v-.614a3.83,3.83,0,0,0,1.613-.664l.434.434.912-.914-.432-.435a3.871,3.871,0,0,0,.664-1.607h.615v-1.293h-.615a3.89,3.89,0,0,0-.664-1.613l.432-.433-.912-.914-.434.434a3.862,3.862,0,0,0-1.613-.664v-.614h-1.291v.614a3.88,3.88,0,0,0-1.613.664l-.433-.434-.913.912.434.435a3.881,3.881,0,0,0-.664,1.612H1210v1.293h.613a3.871,3.871,0,0,0,.664,1.607l-.434.434.913.914Zm1.056-4.363a1.695,1.695,0,1,1,0,2.4,1.7,1.7,0,0,1,0-2.4v0Z" transform="translate(-1210.003 -248.713)"/><path class="a" d="M1212.2,256.862a3.861,3.861,0,0,0,1.613.664v.614h1.291v-.614a3.843,3.843,0,0,0,1.613-.664l.434.435.453-.453-1.947-1.945a1.7,1.7,0,0,1-2.4-2.4l-1.946-1.945-.45.451.433.433a3.888,3.888,0,0,0-.664,1.608h-.613v1.293h.613a3.875,3.875,0,0,0,.664,1.606l-.433.435.912.914.434-.434Z" transform="translate(-1210.006 -249.245)"/></g></g></g></svg>