<svg xmlns="http://www.w3.org/2000/svg" width="16" height="15.992" viewBox="0 0 16 15.992"><defs><style>.a,.b,.c,.d{fill:none;}.b,.c{stroke:#00abc5;}.b{stroke-linecap:round;}.e,.f{stroke:none;}.f{fill:#00abc5;}</style></defs><rect class="a" width="16" height="15.992"/><line class="b" y2="5.333" transform="translate(10.667 8.662) rotate(90)"/><line class="b" y2="5.331" transform="translate(8 5.997)"/><path class="c" d="M-1187.265,1577.121s.369-1.849,2.062-1.849,2.094,1.849,2.094,1.849a7.932,7.932,0,0,0-1.977-.2A14.3,14.3,0,0,0-1187.265,1577.121Z" transform="translate(1193.207 -1573.94)"/><g class="d" transform="translate(1.333 0.665)"><path class="e" d="M6.663,2c3.68,0,6.663,1.651,6.663,5.331A6.663,6.663,0,1,1,0,7.331C0,3.651,2.983,2,6.663,2Z"/><path class="f" d="M 6.663412570953369 3.000001907348633 C 4.954752922058105 3.000001907348633 3.528192520141602 3.378801345825195 2.537952423095703 4.095441818237305 C 1.51744270324707 4.833981513977051 1.000002861022949 5.922492027282715 1.000002861022949 7.330731391906738 C 1.000002861022949 10.45354175567627 3.540602684020996 12.99414157867432 6.663412570953369 12.99414157867432 C 9.786222457885742 12.99414157867432 12.32682228088379 10.45354175567627 12.32682228088379 7.330731391906738 C 12.32682228088379 3.421991348266602 8.366231918334961 3.000001907348633 6.663412570953369 3.000001907348633 M 6.663412570953369 2.000001907348633 C 10.34351253509521 2.000001907348633 13.32682228088379 3.650631904602051 13.32682228088379 7.330731391906738 C 13.32682228088379 11.01083183288574 10.34351253509521 13.99414157867432 6.663412570953369 13.99414157867432 C 2.983312606811523 13.99414157867432 2.86102294921875e-06 11.01083183288574 2.86102294921875e-06 7.330731391906738 C 2.86102294921875e-06 3.650631904602051 2.983312606811523 2.000001907348633 6.663412570953369 2.000001907348633 Z"/></g></svg>