<svg xmlns="http://www.w3.org/2000/svg" width="16" height="16" viewBox="0 0 16 16"><defs><style>.a,.b,.c{fill:none;}.b,.c{stroke:#00abc5;}.c{stroke-linecap:round;stroke-linejoin:round;}.d{stroke:none;}</style></defs><rect class="a" width="16" height="16"/><g class="b" transform="translate(2.667)"><rect class="d" width="10.667" height="16" rx="2"/><rect class="a" x="0.5" y="0.5" width="9.667" height="15" rx="1.5"/></g><path class="c" d="M653.268,569.835l.479.867,2.855-2" transform="translate(-645.935 -565.369)"/><path class="c" d="M653.268,569.835l.479.867,2.855-2" transform="translate(-645.935 -561.369)"/><path class="c" d="M653.268,569.835l.479.867,2.855-2" transform="translate(-645.935 -557.369)"/><g class="b" transform="translate(4.667 4)"><circle class="d" cx="0.667" cy="0.667" r="0.667"/><circle class="a" cx="0.667" cy="0.667" r="0.167"/></g><g class="b" transform="translate(4.667 8)"><circle class="d" cx="0.667" cy="0.667" r="0.667"/><circle class="a" cx="0.667" cy="0.667" r="0.167"/></g><g class="b" transform="translate(4.667 12)"><circle class="d" cx="0.667" cy="0.667" r="0.667"/><circle class="a" cx="0.667" cy="0.667" r="0.167"/></g></svg>