<?xml version="1.0" encoding="utf-8"?>
<!-- Generator: Adobe Illustrator 22.1.0, SVG Export Plug-In . SVG Version: 6.00 Build 0)  -->
<svg version="1.1" id="Layer_1" xmlns="http://www.w3.org/2000/svg" xmlns:xlink="http://www.w3.org/1999/xlink" x="0px" y="0px"
	 viewBox="0 0 12 16" style="enable-background:new 0 0 12 16;" xml:space="preserve">
<style type="text/css">
	.st0{fill:none;}
	.st1{fill:none;stroke:#00ABC5;stroke-linecap:round;stroke-linejoin:round;}
	.st2{fill:none;stroke:#00ABC5;stroke-linecap:round;}
</style>
<g transform="translate(-87 -138)">
	<g transform="matrix(1, 0, 0, 1, 87, 138)">
		<g transform="translate(9 6)">
			<path class="st0" d="M-7-6h8c1.1,0,2,0.9,2,2V8c0,1.1-0.9,2-2,2h-8c-1.1,0-2-0.9-2-2V-4C-9-5.1-8.1-6-7-6z"/>
			<path class="st1" d="M-7-5.5h8c0.8,0,1.5,0.7,1.5,1.5V8c0,0.8-0.7,1.5-1.5,1.5h-8c-0.8,0-1.5-0.7-1.5-1.5V-4
				C-8.5-4.8-7.8-5.5-7-5.5z"/>
		</g>
	</g>
	<g transform="translate(100.4 147.2)">
		<g transform="matrix(1, 0, 0, 1, -13.4, -9.2)">
			<line class="st2" x1="6" y1="3.2" x2="6" y2="6.4"/>
		</g>
		<g transform="matrix(1, 0, 0, 1, -13.4, -9.2)">
			<line class="st2" x1="4.4" y1="4.8" x2="7.6" y2="4.8"/>
		</g>
	</g>
	<g transform="matrix(1, 0, 0, 1, 87, 138)">
		<line class="st2" x1="4.4" y1="12.8" x2="7.6" y2="12.8"/>
	</g>
	<g transform="matrix(1, 0, 0, 1, 87, 138)">
		<line class="st2" x1="4.4" y1="9.6" x2="7.6" y2="9.6"/>
	</g>
</g>
</svg>
