<svg xmlns="http://www.w3.org/2000/svg" width="16.42" height="17.522" viewBox="0 0 16.42 17.522"><defs><style>.a,.b{fill:none;}.a{stroke:#00abc5;stroke-miterlimit:10;stroke-width:1.442px;opacity:0.57;}</style></defs><g transform="translate(0 0.383)"><path class="a" d="M1166.215,549.646v-1.785a.771.771,0,0,1,.762-.761h9.421a.771.771,0,0,1,.761.761v9.421a.771.771,0,0,1-.761.762h-9.421a.771.771,0,0,1-.762-.762Z" transform="translate(-1163.478 -541.627)"/><path class="a" d="M1169.151,544.5v-1.431a3.3,3.3,0,0,1,3.394-3.182h0a3.3,3.3,0,0,1,3.394,3.182" transform="translate(-1164.325 -539.545)"/><path class="a" d="M1173.067,554.855a1.017,1.017,0,0,1-.522-.87.979.979,0,1,1,1.958,0,.99.99,0,0,1-.522.87h0v1.334a.457.457,0,0,1-.913,0v-1.334" transform="translate(-1165.305 -543.331)"/><rect class="b" width="16.42" height="16.42"/></g></svg>