<svg xmlns="http://www.w3.org/2000/svg" width="106.719" height="42.688" viewBox="0 0 106.719 42.688"><defs><style>.a{fill:#ecf0f3;}</style></defs><path class="a" d="M89.2,91.586a4.624,4.624,0,0,1-2.316.533c-1.583,0-2.316-1.013-2.316-3.187V79.581h4.7V75.334H84.562V70H78.914v5.334H75v4.247h3.914V89.793a6.17,6.17,0,0,0,5.478,6.789,6.4,6.4,0,0,0,1.144.015,13.935,13.935,0,0,0,3.971-.486l.131-.045-.176-4.657Zm7.137-16.253h5.085v4.688H96.338Zm0,16.105h5.085v4.687H96.338Zm19.243-16.57c-5.849,0-9.629,4.311-9.629,10.962a10.841,10.841,0,0,0,2.858,7.936,11,11,0,0,0,7.973,2.836,14.216,14.216,0,0,0,7.093-1.646l.088-.045V90.175l-.265.146a13.574,13.574,0,0,1-6.681,2.044,5.111,5.111,0,0,1-5.6-4.575v0c-.008-.071-.014-.142-.017-.213h14.063V87.4C125.452,78.831,122.308,74.869,115.581,74.869Zm4.425,8.683H111.38a4.383,4.383,0,0,1,4.328-4.44h.185c3.22,0,3.968,2.689,4.121,4.437Zm26.439,7.827c-.043-1.412-.074-3-.074-5.113V83.642c0-6.156-2.681-8.786-8.955-8.786a18.545,18.545,0,0,0-7.15,1.557l-.107.045.176,5.024.277-.206a10.567,10.567,0,0,1,6.19-2.189c3.106,0,4.352,1.125,4.412,4.041h-2.731a15.928,15.928,0,0,0-6.916,1.206,6.174,6.174,0,0,0-3.576,6c0,4.054,3.768,6.245,7.3,6.245a7.514,7.514,0,0,0,6.213-3.234v.084a17.6,17.6,0,0,0,.22,2.514l.03.146h5.016l-.015-.188C146.563,94.231,146.487,92.834,146.445,91.38Zm-5.262-4.708a6.324,6.324,0,0,1-1.067,3.908,4.312,4.312,0,0,1-3.575,1.748c-.953,0-3.187-.221-3.187-2.322,0-2.249,1.875-3.35,5.714-3.35h2.111Zm33.606-11.813a7.241,7.241,0,0,0-6.365,3.4,6.132,6.132,0,0,0-6.025-3.4,7.376,7.376,0,0,0-5.949,3.062V75.334h-5.3V96.126h5.656V86.016c0-4.438,1.276-6.686,3.782-6.686,2.873,0,2.873,2.561,2.873,4.423V96.111h5.657V86.016c0-4.438,1.275-6.686,3.782-6.686,2.873,0,2.873,2.561,2.873,4.423V96.111h5.656V83.047C181.414,77.539,179.245,74.859,174.789,74.859Zm-97.431,33.2a4.561,4.561,0,0,1,4.5-4.617h.173c2.063,0,3.444,1.087,3.444,2.146a1.012,1.012,0,0,1-.916,1.1H84.51a.938.938,0,0,1-1.024-.837.889.889,0,0,1,0-.107,1.221,1.221,0,0,1,.088-.456,2.529,2.529,0,0,0-1.582-.419,3.027,3.027,0,0,0-3.052,3v.174a3.057,3.057,0,0,0,2.906,3.2h0c.072,0,.143.006.213,0a3.379,3.379,0,0,0,2.55-1.173l1.01,1.058a4.775,4.775,0,0,1-3.562,1.542,4.441,4.441,0,0,1-4.7-4.168C77.356,108.354,77.354,108.208,77.358,108.06Zm12.061,0a4.551,4.551,0,1,1,4.513,4.615,4.459,4.459,0,0,1-4.516-4.4h0C89.417,108.2,89.418,108.131,89.42,108.06Zm7.534,0a3,3,0,1,0,.006.188C96.96,108.185,96.958,108.122,96.953,108.06Zm5.026,3.088h1.055l.277-6.173H102.2v-1.37h2.437l2.726,4.952,2.727-4.952h2.437v1.367h-1.115l.28,6.176h1.055v1.366H109.1v-1.366h1.067l-.171-4.587-2.534,4.467h-.2l-2.537-4.467-.176,4.587h1.067v1.366h-3.628Zm15.549,0h1.011v-6.173h-1.011v-1.365H121.1a3,3,0,0,1,3.336,2.62,2.639,2.639,0,0,1,.021.29c0,2.043-1.451,3.041-3.532,3.041-.427,0-.674,0-.864-.015v1.6h1.113v1.367h-3.648Zm5.349-4.63c0-.936-.761-1.542-1.862-1.542h-.953v3.219c.161.015.375.03,1,.03a1.622,1.622,0,0,0,1.813-1.4v0A1.722,1.722,0,0,0,122.877,106.515Zm6.187,2.748v-4.29H128.1v-1.367h3.563v1.367h-1.067v4.2c0,1.366.688,2.1,1.814,2.1s1.832-.662,1.832-2.043v-4.267h-1.055v-1.36H136.7v1.367h-.968v4.256a3.335,3.335,0,0,1-6.666.25v-.221Zm13.408,1.886h1.114v-6.22h-1.641v1.411h-1.451v-2.734H148.2v2.733h-1.451v-1.412H145.11v6.215h1.114v1.367h-3.735v-1.367Zm10.041,0h1.01v-6.176h-1.01v-1.367h6.624v2.541h-1.451v-1.186h-2.638v2.38h2.683v1.29h-2.683v2.518h2.638v-1.174h1.451v2.541H152.5v-1.367Zm11.3,0h1.011v-6.176h-1.011v-1.367h3.444c2.036,0,3.5.882,3.5,2.689a2.6,2.6,0,0,1-1.67,2.425l1.362,2.428h1.011v1.366H169.41l-1.789-3.373c-.188.015-.375.03-.542.03-.28,0-.542,0-.734-.015v1.992h1.114v1.366h-3.649Zm5.365-4.792c0-.936-.761-1.381-1.994-1.381h-.822v2.85c.162.015.375.03.864.03,1.129,0,1.951-.561,1.951-1.5ZM175.4,110.6a.951.951,0,0,1,.84-1.052h0a.87.87,0,0,1,.1-.006.913.913,0,0,1,.96.86v.02a1.228,1.228,0,0,1-.116.544,2.423,2.423,0,0,0,1.407.375c.968,0,1.6-.427,1.6-1.206,0-.735-.747-1.087-1.628-1.4-1.642-.6-2.812-1.124-2.812-2.773a2.637,2.637,0,0,1,2.728-2.543,1.473,1.473,0,0,1,.213.017c1.655,0,2.945.853,2.945,1.92a.9.9,0,0,1-.8.993.894.894,0,0,1-.107,0,.918.918,0,0,1-.96-.867v-.043a.957.957,0,0,1,.088-.426,2.238,2.238,0,0,0-1.174-.265c-.879,0-1.392.44-1.392,1.1,0,.735.747,1.057,1.627,1.382,1.6.573,2.8,1.124,2.8,2.773,0,1.687-1.313,2.644-3.137,2.644C176.825,112.668,175.4,111.692,175.4,110.6Z" transform="translate(-75 -70)"/></svg>