<svg xmlns="http://www.w3.org/2000/svg" xmlns:xlink="http://www.w3.org/1999/xlink" width="92.193" height="25.613" viewBox="0 0 92.193 25.613"><defs><style>.a{fill:url(#a);}</style><linearGradient id="a" x1="-12.273" y1="60.569" x2="-12.263" y2="60.536" gradientUnits="objectBoundingBox"><stop offset="0" stop-color="#e5e5e5"/><stop offset="1" stop-color="#f6f3fa"/></linearGradient></defs><path class="a" d="M1709.04,83.641l9.837-17.487a.311.311,0,0,1,.273-.154h2.99a.286.286,0,0,1,.275.412L1709.05,91.09a.32.32,0,0,1-.438.113.314.314,0,0,1-.113-.113l-13.365-24.678a.286.286,0,0,1,.132-.383.279.279,0,0,1,.144-.028h3a.312.312,0,0,1,.273.154l9.817,17.487a.32.32,0,0,0,.442.1A.317.317,0,0,0,1709.04,83.641ZM1741,89.658l9.6-11.814a.313.313,0,0,1,.555.171v13.31a.3.3,0,0,0,.308.285h2.85a.3.3,0,0,0,.309-.286V66.908a.313.313,0,0,0-.558-.171L1741,83.463a.324.324,0,0,1-.455.043.289.289,0,0,1-.044-.043l-13.061-16.726a.313.313,0,0,0-.558.171V91.323a.3.3,0,0,0,.308.286h2.851a.3.3,0,0,0,.308-.285V78.018a.312.312,0,0,1,.555-.171l9.6,11.814a.324.324,0,0,0,.458.031.389.389,0,0,0,.034-.035Zm19.116-22.918a.312.312,0,0,0-.558.171V91.326a.3.3,0,0,0,.308.286h2.85a.3.3,0,0,0,.309-.285V78.018a.312.312,0,0,1,.554-.171l9.6,11.814a.325.325,0,0,0,.457.036.388.388,0,0,0,.035-.036l9.6-11.814a.312.312,0,0,1,.555.171v13.31a.3.3,0,0,0,.308.285h2.851a.3.3,0,0,0,.308-.286V66.911a.313.313,0,0,0-.558-.171l-13.061,16.726a.323.323,0,0,1-.455.044.284.284,0,0,1-.044-.044Z" transform="translate(-1695.105 -66)"/></svg>