<svg xmlns="http://www.w3.org/2000/svg" width="16" height="16.194" viewBox="0 0 16 16.194"><defs><style>.a,.b{fill:none;}.b{stroke:#00abc5;stroke-miterlimit:10;}</style></defs><g transform="translate(0 0.105)"><rect class="a" width="16" height="16"/><path class="b" d="M659.769,566.4a5.311,5.311,0,0,0-7.124-2.364,5.365,5.365,0,0,0-2.348,7.124c.575,1.118,2.811,5.016,3.993,7.06a.842.842,0,0,0,1.47,0c1.182-2.045,3.4-5.942,4.009-7.06A5.027,5.027,0,0,0,659.769,566.4Zm-4.728,4.68a2.3,2.3,0,1,1,2.3-2.3A2.3,2.3,0,0,1,655.041,571.085Z" transform="translate(-646.791 -563.067)"/></g></svg>