<svg xmlns="http://www.w3.org/2000/svg" width="16" height="16.39" viewBox="0 0 16 16.39"><defs><style>.a,.b,.c{fill:none;}.b,.c{stroke:#00abc5;}.b{stroke-miterlimit:10;}.c{stroke-linecap:round;stroke-linejoin:round;}</style></defs><g transform="translate(0 0.195)"><rect class="a" width="16" height="16"/><path class="b" d="M898.176,535.538a2.951,2.951,0,0,0-3,2.857v4.122a.374.374,0,0,0,.381.365H907.1a.374.374,0,0,0,.381-.365v-4.122a2.87,2.87,0,0,0-2.887-2.857Z" transform="translate(-893.595 -527.187)"/><path class="b" d="M931.576,453.99c1.663,0,2.844-1.474,2.844-3.513a2.849,2.849,0,1,0-5.688,0C928.732,452.432,929.915,453.984,931.576,453.99Z" transform="translate(-923.832 -447.161)"/><path class="c" d="M943.123,470.216h0a.483.483,0,0,1,.919,0h0" transform="translate(-936.909 -467.529)"/><path class="c" d="M965.984,470.216h0a.483.483,0,0,1,.919,0h0" transform="translate(-957.681 -467.529)"/><path class="c" d="M949.739,492.9h0c.456,1.1,1.438,1.107,1.893,0l-.947-.009Z" transform="translate(-942.92 -488.441)"/><line class="b" y1="3.648" transform="translate(4.634 12.047)"/><line class="b" y1="3.648" transform="translate(10.833 12.047)"/><path class="b" d="M945.17,535.342a1.7,1.7,0,0,1-3.325.018" transform="translate(-935.747 -527.009)"/><path class="b" d="M993.685,608.744v.292a.365.365,0,0,0,.365.365h.3" transform="translate(-982.852 -593.706)"/><path class="b" d="M987.039,608.744v.292a.365.365,0,0,1-.365.365h-.3" transform="translate(-976.206 -593.706)"/><path class="b" d="M925.819,608.744v.292a.365.365,0,0,0,.365.365h.3" transform="translate(-921.185 -593.706)"/><path class="b" d="M919.173,608.744v.292a.365.365,0,0,1-.365.365h-.3" transform="translate(-914.539 -593.706)"/></g></svg>